<?xml version="1.0" standalone="no"?>
<!DOCTYPE svg PUBLIC "-//W3C//DTD SVG 20010904//EN"
 "http://www.w3.org/TR/2001/REC-SVG-20010904/DTD/svg10.dtd">
<svg version="1.0" xmlns="http://www.w3.org/2000/svg"
 width="1024.000000pt" height="1024.000000pt" viewBox="0 0 1024.000000 1024.000000"
 preserveAspectRatio="xMidYMid meet">

<g transform="translate(0.000000,1024.000000) scale(0.100000,-0.100000)"
fill="#000000" stroke="none">
<path d="M0 5120 l0 -5120 5120 0 5120 0 0 5120 0 5120 -5120 0 -5120 0 0
-5120z m7341 3151 c367 -69 496 -117 604 -224 67 -67 103 -128 131 -222 27
-93 22 -187 -20 -370 -20 -88 -41 -182 -46 -210 -8 -45 -43 -184 -115 -460
-14 -55 -39 -165 -55 -245 -16 -80 -52 -244 -80 -365 -28 -121 -68 -301 -89
-400 -21 -99 -61 -281 -89 -405 -28 -124 -72 -328 -97 -455 -24 -126 -65 -311
-90 -410 -36 -146 -49 -183 -67 -195 -126 -85 -190 -201 -238 -436 -10 -50
-28 -126 -40 -170 -12 -43 -39 -162 -60 -264 -21 -102 -51 -241 -66 -310 l-28
-125 -486 -4 -485 -3 -64 258 c-35 143 -79 313 -98 379 -19 66 -52 185 -74
265 -76 285 -107 397 -154 555 -73 245 -320 1173 -417 1568 -5 20 -12 37 -16
37 -9 0 -80 -228 -122 -393 -17 -65 -55 -207 -85 -315 -30 -108 -78 -294 -108
-412 -30 -118 -70 -273 -90 -345 -20 -71 -55 -200 -78 -285 -23 -85 -59 -216
-80 -290 -21 -74 -63 -234 -93 -355 -31 -121 -81 -312 -111 -425 -30 -113 -55
-213 -55 -222 0 -17 -30 -18 -495 -18 -422 0 -495 2 -495 14 0 22 -195 808
-315 1271 -59 226 -142 550 -186 720 -43 171 -97 380 -119 465 -103 395 -154
593 -209 815 -65 265 -168 663 -204 795 -13 47 -27 102 -31 123 l-7 37 429 0
428 0 27 -102 c47 -178 232 -928 321 -1303 215 -906 257 -1081 295 -1250 22
-99 48 -222 57 -272 9 -51 19 -93 23 -93 8 0 22 43 41 130 52 233 323 1253
425 1595 13 44 31 109 40 145 9 36 52 196 96 355 73 264 98 357 186 685 l28
105 481 5 480 5 38 -155 c21 -85 54 -209 73 -275 20 -66 59 -208 88 -315 50
-185 76 -276 165 -590 53 -184 140 -513 140 -527 0 -7 10 -38 21 -69 15 -38
24 -52 29 -43 4 8 17 75 29 149 13 74 31 171 42 215 20 87 70 310 124 555 38
175 95 422 155 680 22 96 72 319 111 495 89 400 133 574 160 628 73 142 194
236 363 282 70 19 106 18 227 -4z"/>
<path d="M7104 8152 c-82 -25 -144 -62 -192 -117 -76 -86 -102 -165 -192 -585
-23 -107 -62 -283 -87 -390 -25 -107 -56 -242 -68 -300 -13 -58 -42 -186 -65
-285 -23 -99 -63 -283 -90 -410 -86 -403 -154 -711 -220 -985 -27 -113 -56
-240 -65 -283 -10 -43 -28 -99 -41 -125 -31 -61 -30 -80 7 -155 38 -75 76
-182 119 -337 17 -63 45 -155 62 -205 43 -132 95 -353 113 -490 9 -65 20 -125
24 -132 4 -9 38 32 98 120 108 159 172 240 329 419 149 169 313 360 380 441
l51 62 46 195 c26 107 74 328 106 490 61 300 164 780 201 938 12 48 48 213 81
367 62 292 141 624 184 770 13 47 32 122 40 168 9 45 30 140 47 212 29 119 31
135 21 201 -25 175 -125 289 -305 348 -115 37 -324 77 -428 82 -72 3 -110 0
-156 -14z m358 -162 c103 -21 205 -48 227 -60 65 -33 112 -81 143 -145 23 -50
28 -73 28 -140 0 -115 -5 -128 -44 -120 -17 3 -101 19 -186 35 -170 32 -400
86 -556 131 -56 16 -111 29 -123 29 -28 0 -28 40 -1 113 46 122 149 193 285
196 22 0 124 -17 227 -39z m-335 -461 c131 -34 288 -72 348 -85 327 -72 335
-74 335 -99 0 -43 -24 -127 -37 -132 -8 -3 -53 2 -101 11 -48 9 -143 25 -212
36 -69 11 -236 48 -372 82 -279 70 -259 56 -233 162 19 76 23 86 30 86 2 0
112 -27 242 -61z m-204 -315 c43 -12 81 -25 84 -28 4 -4 -4 -50 -16 -104 -146
-629 -175 -757 -301 -1347 -22 -104 -47 -218 -55 -252 -8 -35 -36 -163 -61
-285 -26 -123 -59 -281 -73 -351 l-27 -128 -33 46 c-19 27 -40 45 -52 45 -11
0 -47 -14 -80 -31 -34 -17 -63 -29 -65 -26 -2 2 1 19 6 38 31 103 75 282 125
507 31 139 58 258 60 265 5 13 44 192 125 572 27 127 67 309 89 405 104 453
151 667 151 688 0 20 4 22 23 16 12 -4 57 -17 100 -30z m356 -85 l103 -23 -6
-42 c-6 -48 -65 -309 -136 -604 -27 -113 -61 -259 -75 -325 -14 -66 -43 -196
-65 -290 -21 -93 -48 -215 -59 -271 -12 -55 -39 -188 -61 -295 -23 -107 -59
-286 -81 -399 -51 -262 -48 -256 -84 -200 -57 90 -95 112 -125 74 -17 -19 -99
-68 -106 -62 -2 3 2 21 11 41 8 19 30 111 49 204 79 378 105 501 115 538 5 22
28 126 50 230 70 331 118 555 161 740 74 323 99 438 127 578 28 136 28 138 53
134 14 -3 72 -15 129 -28z m344 -73 l89 -21 -7 -45 c-4 -25 -20 -97 -35 -161
-28 -108 -57 -239 -115 -519 -14 -63 -36 -162 -50 -220 -36 -153 -72 -314
-110 -495 -18 -88 -40 -187 -48 -220 -9 -33 -23 -98 -32 -145 -9 -47 -29 -146
-45 -220 -16 -74 -36 -175 -45 -225 -9 -49 -27 -130 -39 -179 l-22 -89 -33 51
c-45 70 -73 79 -123 37 -16 -14 -33 -25 -38 -25 -15 0 243 1227 370 1760 42
177 67 292 126 573 32 150 40 177 53 171 9 -3 56 -16 104 -28z m-1183 -2484
c20 -29 43 -51 53 -52 21 0 106 42 165 82 23 16 47 26 52 23 6 -4 32 -39 59
-78 92 -136 113 -147 192 -102 52 29 80 31 120 8 49 -29 40 -49 -81 -178 -31
-33 -88 -107 -128 -165 -115 -167 -101 -155 -158 -137 -81 27 -257 67 -292 67
-43 0 -72 16 -72 39 0 31 -68 283 -104 386 -46 129 -46 131 2 127 29 -3 46 3
77 26 49 36 63 31 115 -46z"/>
</g>
</svg>
